HIERARCHY
ROOT Hips
{
  OFFSET 50.7119 51.6657 9.24399
  CHANNELS 6 Xposition Yposition Zposition Zrotation Xrotation Yrotation
  JOINT spine
  {
    OFFSET 0 8.81704 0.507024
    CHANNELS 3 Zrotation Xrotation Yrotation
    JOINT spine1
    {
      OFFSET 0 10.7766 0
      CHANNELS 3 Zrotation Xrotation Yrotation
      JOINT spine2
      {
        OFFSET 0 10.3259 0
        CHANNELS 3 Zrotation Xrotation Yrotation
        JOINT Neck
        {
          OFFSET 0 26.511 1.26395
          CHANNELS 3 Zrotation Xrotation Yrotation
          JOINT Head
          {
            OFFSET 0 8.00966 0
            CHANNELS 3 Zrotation Xrotation Yrotation
            End Site
            {
              OFFSET 0 19.3879 -6.39386
            }
          }
        }
        JOINT RightShoulder
        {
          OFFSET -4.34795 11.1512 -0.605422
          CHANNELS 3 Zrotation Xrotation Yrotation
          JOINT RightArm
          {
            OFFSET 0 14.6258 0
            CHANNELS 3 Zrotation Xrotation Yrotation
            JOINT RightArmRoll
            {
              OFFSET 0 7.3834 0
              CHANNELS 3 Zrotation Xrotation Yrotation
              JOINT RightForeArm
              {
                OFFSET 0 21.5052 0
                CHANNELS 3 Zrotation Xrotation Yrotation
                JOINT RightForeArmRoll
                {
                  OFFSET 0 8.28532 0
                  CHANNELS 3 Zrotation Xrotation Yrotation
                  JOINT RightHand
                  {
                    OFFSET 0 16.6268 0
                    CHANNELS 3 Zrotation Xrotation Yrotation
                    End Site
                    {
                      OFFSET 0 0 0
                    }
                  }
                }
              }
            }
          }
        }
        JOINT LeftShoulder
        {
          OFFSET 4.34795 11.1512 -0.605422
          CHANNELS 3 Zrotation Xrotation Yrotation
          JOINT LeftArm
          {
            OFFSET 0 14.6258 0
            CHANNELS 3 Zrotation Xrotation Yrotation
            JOINT LeftArmRoll
            {
              OFFSET 0 7.3834 0
              CHANNELS 3 Zrotation Xrotation Yrotation
              JOINT LeftForeArm
              {
                OFFSET 0 21.5052 0
                CHANNELS 3 Zrotation Xrotation Yrotation
                JOINT LeftForeArmRoll
                {
                  OFFSET 0 8.28532 0
                  CHANNELS 3 Zrotation Xrotation Yrotation
                  JOINT LeftHand
                  {
                    OFFSET 0 16.6268 0
                    CHANNELS 3 Zrotation Xrotation Yrotation
                    End Site
                    {
                      OFFSET 0 0 0
                    }
                  }
                }
              }
            }
          }
        }
      }
    }
  }
  JOINT RightUpLeg
  {
    OFFSET -7.8151 -1.43309 -1.20217
    CHANNELS 3 Zrotation Xrotation Yrotation
    JOINT RightUpLegRoll
    {
      OFFSET 0 19.4959 0
      CHANNELS 3 Zrotation Xrotation Yrotation
      JOINT RightLeg
      {
        OFFSET 0 -24.1427 0
        CHANNELS 3 Zrotation Xrotation Yrotation
        JOINT RightLegRoll
        {
          OFFSET 0 24.2217 0
          CHANNELS 3 Zrotation Xrotation Yrotation
          JOINT RightFoot
          {
            OFFSET 0 20.1605 0
            CHANNELS 3 Zrotation Xrotation Yrotation
            JOINT RightToeBase
            {
              OFFSET 0 16.8532 0
              CHANNELS 3 Zrotation Xrotation Yrotation
              End Site
              {
                OFFSET 0.00714343 8.16187 -0.94078
              }
            }
          }
        }
      }
    }
  }
  JOINT LeftUpLeg
  {
    OFFSET 7.8151 -1.43309 -1.20217
    CHANNELS 3 Zrotation Xrotation Yrotation
    JOINT LeftUpLegRoll
    {
      OFFSET 0 19.496 0
      CHANNELS 3 Zrotation Xrotation Yrotation
      JOINT LeftLeg
      {
        OFFSET 0 24.1426 0
        CHANNELS 3 Zrotation Xrotation Yrotation
        JOINT LeftLegRoll
        {
          OFFSET 0 24.4456 0
          CHANNELS 3 Zrotation Xrotation Yrotation
          JOINT LeftFoot
          {
            OFFSET 0 19.9366 0
            CHANNELS 3 Zrotation Xrotation Yrotation
            JOINT LeftToeBase
            {
              OFFSET 0 16.8532 0
              CHANNELS 3 Zrotation Xrotation Yrotation
              End Site
              {
                OFFSET -0.0320138 8.16186 -0.940781
              }
            }
          }
        }
      }
    }
  }
}
MOTION
Frames: 5
Frame Time: 0.00208333
50.7119 50.7995 9.47244 -1.68118 -3.52022 2.1696 0.890866 1.89977 -0.174449 1.80699 7.79787 -0.497311 1.8178 9.44245 -0.528911 -1.18815 40.6456 3.15353 -12.8212 -0.0172851 1.17832 62.3446 -3.20673 -2.3122 109.637 36.1434 -20.5151 -3.16702e-006 -3.78484e-006 -3.05561e-006 20.4736 50.285 -10.7634 -7.59334e-007 1.02227e-006 -3.00457 8.02893 -4.95145 0.697688 -61.624 -1.19717 1.09136 -110.8 31.0148 14.4593 2.11229e-005 -6.34012e-007 2.33715e-006 -13.9755 51.6107 8.56555 6.70993e-006 -1.61619e-006 3 -8.02888 -4.95146 -0.697675 83.0094 77.6159 106.221 180 7.01272e-015 178.067 -6.14944 70.1187 7.57156 -3.63445e-006 -4.01359e-006 2.71955 -40.3772 77.1306 35.7314 8.12972 25.2333 -3.48104 -71.4799 78.3872 -111.529 4.54188e-006 -4.6773e-006 -1.48441 166.212 -69.3815 162.652 -2.31669e-006 -6.61368e-007 -2.44174 29.1786 76.2122 -30.5652 -8.13614 25.2375 3.48278 
50.6921 50.7939 9.48904 -1.68786 -3.64048 2.15912 0.890775 1.89702 -0.177802 1.80713 7.79232 -0.503647 1.81802 9.4369 -0.535261 -1.11574 40.5146 3.12455 -12.8319 -0.0114746 1.18548 62.5343 -3.23248 -2.34369 109.563 36.2093 -20.4575 -3.16702e-006 -3.78484e-006 -3.05561e-006 20.4937 50.1473 -10.7365 -7.59334e-007 1.02227e-006 -3.00457 8.02893 -4.95145 0.697688 -61.6578 -1.24559 1.12309 -110.746 31.0751 14.4766 2.11229e-005 -6.34012e-007 2.33715e-006 -14.025 51.4555 8.56148 6.70993e-006 -1.61619e-006 3 -8.02888 -4.95146 -0.697675 83.5153 77.6589 105.722 180 7.0127e-015 178.064 -6.20868 70.0751 7.66325 -3.63445e-006 -4.01359e-006 2.71851 -40.4394 77.1616 35.8205 8.12972 25.2333 -3.48104 -71.9913 78.4059 -111 4.54188e-006 -4.6773e-006 -1.48394 166.205 -69.3457 162.64 -2.31669e-006 -6.61368e-007 -2.44131 29.2094 76.2318 -30.6054 -8.13614 25.2375 3.48275 
50.7188 50.7887 9.51609 -1.69531 -3.75862 2.14786 0.890915 1.89366 -0.181211 1.80764 7.78555 -0.510174 1.81861 9.43012 -0.541808 -1.05569 40.3946 3.1007 -12.8295 -0.0195701 1.19165 62.7117 -3.25108 -2.37001 109.501 36.2695 -20.3961 -3.16702e-006 -3.78484e-006 -3.05561e-006 20.5101 50.0011 -10.7061 -7.59334e-007 1.02227e-006 -3.00457 8.02893 -4.95145 0.697688 -61.6888 -1.292 1.15333 -110.696 31.1325 14.4919 2.11229e-005 -6.34012e-007 2.33715e-006 -14.0722 51.2968 8.55516 6.70993e-006 -1.61619e-006 3 -8.02888 -4.95146 -0.697675 84.015 77.7012 105.228 180 7.01269e-015 178.061 -6.26381 70.0397 7.74682 -3.63445e-006 -4.01359e-006 2.71753 -40.483 77.1857 35.8884 8.12972 25.2333 -3.48104 -72.4944 78.4246 -110.477 4.54188e-006 -4.6773e-006 -1.48381 166.196 -69.3149 162.625 -2.31669e-006 -6.61368e-007 -2.44109 29.2312 76.2473 -30.6367 -8.13614 25.2375 3.48273 
50.7072 50.7661 9.54633 -1.70361 -3.87442 2.13569 0.891329 1.88956 -0.184682 1.80858 7.77729 -0.516917 1.81963 9.42186 -0.548578 -1.0098 40.2876 3.08265 -12.812 -0.0435416 1.1966 62.8751 -3.26146 -2.39038 109.451 36.3233 -20.3303 -3.16702e-006 -3.78484e-006 -3.05561e-006 20.5226 49.8451 -10.6718 -7.59334e-007 1.02227e-006 -3.00457 8.02893 -4.95145 0.697688 -61.7168 -1.33586 1.18174 -110.647 31.1866 14.5048 2.11229e-005 -6.34012e-007 2.33715e-006 -14.1168 51.134 8.54629 6.70993e-006 -1.61619e-006 3 -8.02888 -4.95146 -0.697675 84.507 77.7429 104.742 180 7.01268e-015 178.059 -6.31434 70.0137 7.8211 -3.63445e-006 -4.01359e-006 2.71662 -40.5048 77.2017 35.9312 8.12972 25.2333 -3.48104 -72.9882 78.4433 -109.963 4.54188e-006 -4.6773e-006 -1.48408 166.183 -69.29 162.606 -2.31669e-006 -6.61368e-007 -2.44109 29.2426 76.258 -30.6573 -8.13614 25.2375 3.48271 
50.7233 50.7597 9.55254 -1.71314 -3.98769 2.12283 0.89195 1.88473 -0.188328 1.80981 7.76757 -0.524078 1.82094 9.41214 -0.555772 -0.977199 40.1923 3.07016 -12.7786 -0.0838202 1.20051 63.0293 -3.2638 -2.40529 109.409 36.3719 -20.2607 -3.16702e-006 -3.78484e-006 -3.05561e-006 20.5327 49.6793 -10.6341 -7.59334e-007 1.02227e-006 -3.00457 8.02893 -4.95145 0.697688 -61.7424 -1.37813 1.20892 -110.599 31.2381 14.5157 2.11229e-005 -6.34012e-007 2.33715e-006 -14.1597 50.9676 8.53538 6.70993e-006 -1.61619e-006 3 -8.02888 -4.95146 -0.697675 84.9915 77.7841 104.263 180 7.01267e-015 178.057 -6.36084 69.995 7.88755 -3.63445e-006 -4.01359e-006 2.71573 -40.5097 77.2118 35.9552 8.12972 25.2333 -3.48104 -73.4702 78.4624 -109.458 4.54188e-006 -4.6773e-006 -1.48458 166.168 -69.2693 162.584 -2.31669e-006 -6.61368e-007 -2.44126 29.245 76.2653 -30.6699 -8.13614 25.2375 3.48268 
